<svg id="svg2" xmlns="http://www.w3.org/2000/svg" viewBox="0 0 657.83 29.74"><title>divider</title><g id="g4257"><path id="path4259" d="M289.38,26.14c12.09-1.85,10-19.22,0-21.34C194.89,14.66,97.86,11.54,0,15.84,97.39,20.3,192,14.16,289.38,26.14Z"/><path id="path4261" d="M340.78,15.47c0,6.88-5.32,12.47-11.87,12.47S317,22.35,317,15.47,322.35,3,328.91,3,340.78,8.58,340.78,15.47Z"/><path id="path4263" d="M368.45,26.14c-12.09-1.85-10-19.22,0-21.34,94.49,9.86,191.52,6.74,289.38,11C560.43,20.3,465.84,14.16,368.45,26.14Z"/></g></svg>