<svg id="Layer_1" data-name="Layer 1" xmlns="http://www.w3.org/2000/svg" viewBox="0 0 100 57.47"><title>dog</title><path d="M84.79,33.93a7.38,7.38,0,0,0,1.16,1,6.24,6.24,0,0,1,2,6.62,12.72,12.72,0,0,0-.81,4,10.75,10.75,0,0,1-.34,1.78,3.51,3.51,0,0,1-.44,1.08,9.94,9.94,0,0,1-4.65,4.11,33.27,33.27,0,0,1-9.26,2.3c-1.23.11-2.46.12-3.68.35a11.73,11.73,0,0,1-2.9,0c-.83,0-1.13-.57-.81-1.36A8,8,0,0,1,69,49.59l3.22-1.68a1.92,1.92,0,0,0,.31-.18c.16-.11.37-.26.27-.46s-.34,0-.5,0a10.4,10.4,0,0,1-2.71.46,9.22,9.22,0,0,0-3.11,1,17.31,17.31,0,0,1-5.86,1.55,29.4,29.4,0,0,0-5.34,1,9.7,9.7,0,0,1-4.25.36A4.77,4.77,0,0,1,47.74,50a6.21,6.21,0,0,1-1.45-2.88,2.86,2.86,0,0,1,.7-2.56,13.41,13.41,0,0,1,2.84-2.36c1.32-.8,2.69-1.54,4-2.38A10.22,10.22,0,0,0,57,36.39a9.53,9.53,0,0,0,1.31-3.45c-.19.24-.38.47-.56.71a5.9,5.9,0,0,1-4.57,2.45,1.62,1.62,0,0,1-.44,0c-.3,0-.35-.21-.23-.46a1.92,1.92,0,0,1,.18-.31,19.88,19.88,0,0,1,2.58-3.13,10.19,10.19,0,0,0,.85-1A6.9,6.9,0,0,1,58,29.51l3.65-2.24a17.34,17.34,0,0,1,3.59-1.56A27,27,0,0,1,70,24.4a5,5,0,0,1,1.45,0c2.22.35,4.46.53,6.69.88a7.5,7.5,0,0,0,2.67-.13,1.64,1.64,0,0,0,1.3-1,.48.48,0,0,0-.1-.51.4.4,0,0,0-.53-.09c-1.41.7-2.87.33-4.28.13-2.09-.3-4.18-.53-6.27-.72a14.66,14.66,0,0,0-2.39.1,18.9,18.9,0,0,0-4.87,1.1,20.51,20.51,0,0,0-3.91,2.05A21.57,21.57,0,0,0,55.06,30,28.15,28.15,0,0,0,52,33.8a4.06,4.06,0,0,1-4.15,1.84,14.43,14.43,0,0,1-4.57-1.06,5.52,5.52,0,0,1-3-2.78A19.62,19.62,0,0,0,36.18,26,13.42,13.42,0,0,0,33.38,24a12.13,12.13,0,0,0-3.85-1.23c-1.42-.25-2.82-.67-4.22-1.06a3.3,3.3,0,0,1-1.77-1.2,11.06,11.06,0,0,1-1.6-2.23.52.52,0,0,0-.37-.32c-.36-.07-.57.14-.44.48a8.76,8.76,0,0,0,.39.86,13.39,13.39,0,0,1,.92,2,2.09,2.09,0,0,0,1.11,1.32,10.6,10.6,0,0,0,2.95,1,21.77,21.77,0,0,1,5.31,1.45,19.37,19.37,0,0,1,4.29,2.55,9.5,9.5,0,0,1,2.38,3A5.7,5.7,0,0,1,39,33.46c0,1.14-.11,2.27-.14,3.41a5.33,5.33,0,0,0,.61,2.77,7.94,7.94,0,0,0,4.43,3.88,14.09,14.09,0,0,0,1.71.38c0,.36-.34.54-.44.83a6.1,6.1,0,0,0-.33,3.84,1.47,1.47,0,0,0,.08.28c.21.72.2.75-.57.89s-1.43.27-2.15.35q-2.88.28-5.78.52a1.71,1.71,0,0,1-1.68-.78,11.19,11.19,0,0,0-4.93-3.93,39.75,39.75,0,0,0-7-2.59,22.66,22.66,0,0,1-9.08-4.85l-.18-.12h-.11c-.14.3-.26.56.06.88a24.5,24.5,0,0,0,7,5.25,66.66,66.66,0,0,0,7.57,3.14,13.9,13.9,0,0,1,5.22,2.92,5,5,0,0,0,4,1.25,18.45,18.45,0,0,1,2-.14c1.8,0,3.58-.12,5.37-.25a4,4,0,0,1,2.38.42,10,10,0,0,0,8.09.61A49.14,49.14,0,0,1,61.32,51c1.12-.19,2.26-.27,3.38-.48a1.1,1.1,0,0,1,.76,0,.3.3,0,0,1-.06.35c-.62.83-1.24,1.67-1.89,2.47a4.67,4.67,0,0,1-2.14,1.46,38.46,38.46,0,0,1-6.27,1.52c-4,.63-8,.36-12,.4-2.15,0-4.3-.13-6.45-.16a26.7,26.7,0,0,1-7.46-1.37,57.08,57.08,0,0,1-8.65-3.93l-2-1A39.52,39.52,0,0,1,14.16,48a42.37,42.37,0,0,1-4.63-2.86,9.41,9.41,0,0,1-2.22-2.36c-.48-.73-1-1.45-1.41-2.2a13.16,13.16,0,0,1-1.67-4.46c-.12-.65-.21-1.29-.33-1.94a5.28,5.28,0,0,0-.65-1.83,8.06,8.06,0,0,1-.8-5.43,20.81,20.81,0,0,1,1.8-5.65A2.1,2.1,0,0,1,4.38,21C5.61,19,6.87,17.11,8.25,15.27a17.86,17.86,0,0,1,5.21-4.46c2.23-1.36,4.59-2.49,6.91-3.7a72.56,72.56,0,0,1,7.87-3.47,38.62,38.62,0,0,1,9.68-2.49,64.4,64.4,0,0,1,9.21-.3,48.25,48.25,0,0,1,7,.69,50.4,50.4,0,0,1,5.42,1.33c1.55.48,3.11.93,4.67,1.37a25.22,25.22,0,0,1,2.81,1c2.91,1,5.73,2.23,8.58,3.37,2.07.83,4.18,1.54,6.27,2.32,1.77.58,3.52,1.25,5.22,2a33.55,33.55,0,0,1,4.66,2.66A13.56,13.56,0,0,1,95.28,20a13.07,13.07,0,0,1,1.55,4.36,50.55,50.55,0,0,1,.92,5.32,19.18,19.18,0,0,1-.26,6,18.46,18.46,0,0,1-1.35,3.82A14.83,14.83,0,0,1,94.88,42a17.43,17.43,0,0,1-3.14,3.66,1.22,1.22,0,0,1-1.71.14,1.16,1.16,0,0,1-.29-.37A4.44,4.44,0,0,1,89,42a9.37,9.37,0,0,0-.13-3.46,5.86,5.86,0,0,0-2.06-3.24A7.92,7.92,0,0,0,84.79,33.93ZM52.68,48.76A5.78,5.78,0,0,1,49,44.24a9.18,9.18,0,0,1-.83.93,1.91,1.91,0,0,0-.43,2.26,3.33,3.33,0,0,0,3.37,2,.72.72,0,0,0,.4-.12A3.59,3.59,0,0,1,52.68,48.76ZM63.61,35.58l-.74-.26a2.13,2.13,0,0,1-1.47-2,3.49,3.49,0,0,1,.06-.65c0-.14,0-.32-.09-.4a.39.39,0,0,0-.46.11,2,2,0,0,0-.19.22,2.53,2.53,0,0,0,.52,3.32,1,1,0,0,0,.33.15,11.34,11.34,0,0,0,1.14.2C63.26,36.29,63.35,36.21,63.61,35.58Zm3.26,3.81a2,2,0,0,0-.54,1.35.88.88,0,0,0,.33.77,6,6,0,0,0,1.58,1A3,3,0,0,0,71,42.33c.38-.23.32-.24,0-.51a1.26,1.26,0,0,0-1.2-.18,1.75,1.75,0,0,1-.72,0C67.67,41.33,66.91,41.08,66.87,39.39ZM52.73,37.32a38.55,38.55,0,0,1-5.78.4,3,3,0,0,1-1.19-.24c-.54-.22-1.06-.48-1.58-.73a2.85,2.85,0,0,0-2.72,0,4.85,4.85,0,0,1-1.09.55c-.26.06-.28.24-.16.45.25.44.51.87.74,1.33a6.27,6.27,0,0,0,4.36,3.19A3.69,3.69,0,0,0,48,42a36.86,36.86,0,0,0,6-4.3.51.51,0,0,0,.19-.4A4.47,4.47,0,0,0,52.73,37.32Z"/></svg>